<svg xmlns="http://www.w3.org/2000/svg" width="548.988" height="550.83" fill-rule="evenodd" clip-rule="evenodd" image-rendering="optimizeQuality" shape-rendering="geometricPrecision" text-rendering="geometricPrecision" viewBox="0 0 669.83 672.07"><path fill="#03a9f4" d="M170.19 81.5l194.09 0c-1.91,-28.12 11.9,-56.22 37.96,-71.27 36.47,-21.06 83.1,-8.56 104.16,27.91 2.43,4.21 4.41,8.56 5.96,12.99 52.42,-19.69 112.91,0.8 141.83,50.9 28.92,50.09 16.43,112.72 -26.83,148.28 3.06,3.56 5.84,7.45 8.27,11.66 21.06,36.47 8.56,83.1 -27.91,104.16 -5.52,3.19 -11.28,5.6 -17.14,7.28l0 128.48c0,93.71 -76.48,170.19 -170.19,170.19l-250.2 0c-93.71,0 -170.19,-76.48 -170.19,-170.19l0 -250.2c0,-93.71 76.48,-170.19 170.19,-170.19z"/><rect width="481.59" height="481.59" x="54.49" y="135.99" fill="#ff6" rx="115.7" ry="115.7"/><path fill="#4fc3f7" d="M536.08 401.74l0 100.14c0,63.63 -52.06,115.7 -115.7,115.7l-250.2 0c-63.63,0 -115.7,-52.06 -115.7,-115.7l0 -100.14 481.59 0z"/><path fill="#03a9f4" fill-rule="nonzero" d="M425.04 265.94c5.49,-5.38 12.1,-8.08 21.72,-8.08 17.01,0 30.81,12.38 30.81,27.63 0,25.02 -25.26,50.04 -52.92,75.06 -4.97,4.49 -12.46,4.49 -17.43,0 -27.65,-25.02 -52.91,-50.04 -52.91,-75.06 0,-15.25 13.8,-27.63 30.81,-27.63 9.62,0 16.23,2.69 21.72,8.08 5.04,4.95 13.14,4.95 18.19,0zm-241.31 0c5.49,-5.38 12.1,-8.08 21.72,-8.08 17.01,0 30.81,12.38 30.81,27.63 0,25.02 -25.26,50.04 -52.91,75.06 -4.97,4.49 -12.46,4.49 -17.43,0 -27.65,-25.02 -52.91,-50.04 -52.91,-75.06 0,-15.25 13.8,-27.63 30.81,-27.63 9.62,0 16.23,2.69 21.72,8.08 5.04,4.95 13.14,4.95 18.19,0z"/><circle cx="295.29" cy="502.06" r="29.97" fill="#03a9f4"/></svg>