<svg xmlns="http://www.w3.org/2000/svg" width="548.989" height="550.83" fill-rule="evenodd" clip-rule="evenodd" image-rendering="optimizeQuality" shape-rendering="geometricPrecision" text-rendering="geometricPrecision" viewBox="0 0 1554.32 1559.53"><path fill="#03a9f4" d="M394.92 189.11l450.39 0c-4.44,-65.26 27.62,-130.47 88.08,-165.38 84.63,-48.86 192.84,-19.86 241.7,64.76 5.64,9.77 10.23,19.87 13.83,30.14 121.65,-45.7 262,1.87 329.11,118.11 67.11,116.24 38.13,261.57 -62.27,344.07 7.1,8.26 13.54,17.28 19.19,27.05 48.86,84.63 19.86,192.84 -64.76,241.7 -12.81,7.4 -26.17,13 -39.77,16.9l0 298.13c0,217.45 -177.47,394.92 -394.92,394.92l-580.58 0c-217.45,0 -394.92,-177.47 -394.92,-394.92l0 -580.58c0,-217.45 177.47,-394.92 394.92,-394.92z"/><rect width="1117.53" height="1117.53" x="126.44" y="315.56" fill="#ff6" rx="268.47" ry="268.47"/><path fill="#4fc3f7" d="M1243.97 932.23l0 232.38c0,147.66 -120.81,268.47 -268.47,268.47l-580.58 0c-147.66,0 -268.47,-120.81 -268.47,-268.47l0 -232.38 1117.53 0z"/><path fill="#03a9f4" d="M618.47 751.98c-40.27 55-108.79 82.93-175.74 82.93-66.95 0-135.47-27.93-175.74-82.93-14.91-20.37-10.46-49.15 9.9-64.06 20.37-14.91 49.15-10.46 64.06 9.91 8.1 11.07 18.62 20.01 30.48 26.95 21.43 12.52 47.27 18.47 71.29 18.47 24.2 0 50.24-6.03 71.76-18.75 11.67-6.89 22.01-15.75 30.01-26.67 14.91-20.37 43.69-24.82 64.06-9.91 20.37 14.91 24.82 43.69 9.9 64.06zM1103.42 751.98c-40.27 55-108.79 82.93-175.74 82.93-66.95 0-135.47-27.93-175.74-82.93-14.91-20.37-10.46-49.15 9.91-64.06 20.37-14.91 49.15-10.46 64.06 9.91 8.1 11.07 18.62 20.01 30.48 26.95 21.43 12.52 47.27 18.47 71.29 18.47 24.2 0 50.24-6.03 71.76-18.75 11.67-6.89 22.01-15.75 30.01-26.67 14.91-20.37 43.69-24.82 64.06-9.91 20.37 14.91 24.82 43.69 9.9 64.06zM986.26 1163.76c-41.82-56.19-108.89-108.97-172.64-136.36-164.69-70.74-316.81.35-425.34 131.08-34.49 41.55-39.19 97.42-12.12 144.15 27.07 46.72 77.88 70.44 131.08 61.19 118.39-20.59 237.36-20.79 355.75-.03 52.06 9.13 101.75-13.21 129.48-58.21 27.73-44.99 25.34-99.43-6.21-141.83zm-500.69 75.49c133.08-23.15 266.17-23.33 399.25 0 0 0-188.74-253.59-399.25 0z"/></svg>