<svg xmlns="http://www.w3.org/2000/svg" width="585.826" height="550.83" fill-rule="evenodd" clip-rule="evenodd" image-rendering="optimizeQuality" shape-rendering="geometricPrecision" text-rendering="geometricPrecision" viewBox="0 0 1166.6 1096.91"><path fill="#03a9f4" d="M351.12 133.02l316.78 0c-3.12,-45.9 19.42,-91.77 61.95,-116.32 59.52,-34.37 135.64,-13.97 170,45.55 3.97,6.87 7.2,13.97 9.73,21.2 85.56,-32.14 184.28,1.31 231.48,83.07 47.2,81.76 26.82,183.98 -43.8,242.01 4.99,5.81 9.53,12.15 13.49,19.03 34.37,59.52 13.97,135.64 -45.55,170 -9.01,5.2 -18.4,9.14 -27.97,11.89l0 209.69c0,152.95 -124.82,277.77 -277.77,277.77l-408.35 0c-152.95,0 -277.77,-124.82 -277.77,-277.77l0 -408.35c0,-152.95 124.82,-277.77 277.77,-277.77z"/><rect width="786.02" height="786.02" x="162.29" y="221.95" fill="#ff6" rx="188.83" ry="188.83"/><path fill="#4fc3f7" d="M948.31 655.69l0 163.45c0,103.86 -84.98,188.83 -188.83,188.83l-408.35 0c-103.86,0 -188.83,-84.98 -188.83,-188.83l0 -163.45 786.02 0z"/><path fill="#03a9f4" d="M508.36 535.97c-28.32-38.69-76.52-58.33-123.61-58.33-47.09 0-95.28 19.64-123.61 58.33-10.49 14.33-7.36 34.57 6.97 45.06 14.33 10.49 34.57 7.36 45.06-6.97 5.7-7.79 13.1-14.08 21.44-18.95 15.07-8.81 33.25-12.99 50.14-12.99 17.02 0 35.34 4.24 50.48 13.18 8.21 4.85 15.48 11.07 21.11 18.76 10.49 14.33 30.73 17.46 45.06 6.97 14.33-10.49 17.46-30.73 6.97-45.06zM849.46 535.97c-28.33-38.69-76.52-58.33-123.61-58.33-47.09 0-95.28 19.64-123.61 58.33-10.49 14.33-7.36 34.57 6.97 45.06 14.33 10.49 34.57 7.36 45.06-6.97 5.7-7.79 13.1-14.08 21.44-18.95 15.07-8.81 33.25-12.99 50.14-12.99 17.02 0 35.34 4.24 50.48 13.18 8.21 4.85 15.48 11.07 21.11 18.76 10.49 14.33 30.73 17.46 45.06 6.97 14.33-10.49 17.46-30.73 6.97-45.06zM258.57 656.7c-8.28 46.57-27.44 124-60.63 157.18-44.82 44.82-120.07 56.39-167.45 9.02-47.38-47.38-35.8-122.63 9.02-167.45 33.19-33.18 110.61-52.35 157.18-60.63 17.71-3.15 34.35 2.09 47.07 14.81 12.72 12.72 17.95 29.36 14.81 47.07z"/><path fill="#ff6" d="M197.7 655.69c0,0 -15.97,89.88 -40.82,114.73 -24.85,24.85 -61.53,28.44 -81.94,8.03 -20.41,-20.41 -16.81,-57.1 8.03,-81.94 24.85,-24.85 114.73,-40.82 114.73,-40.82z"/><g><path fill="#03a9f4" d="M852.03 656.7c8.28,46.57 27.44,124 60.63,157.18 44.82,44.82 120.07,56.39 167.45,9.02 47.38,-47.38 35.8,-122.63 -9.02,-167.45 -33.18,-33.18 -110.61,-52.35 -157.18,-60.63 -17.71,-3.15 -34.35,2.09 -47.07,14.81 -12.72,12.72 -17.95,29.36 -14.81,47.07z"/><path fill="#ff6" d="M912.9 655.69c0,0 15.98,89.88 40.82,114.73 24.85,24.85 61.53,28.44 81.94,8.03 20.41,-20.41 16.81,-57.1 -8.03,-81.94 -24.85,-24.85 -114.73,-40.82 -114.73,-40.82z"/></g><path fill="#03a9f4" d="M782.39 811.94c-53.38,72.02 -137.26,114.45 -227.09,114.45 -89.83,0 -173.71,-42.42 -227.09,-114.45 -15.36,-20.72 -10.98,-50.14 9.74,-65.5 20.72,-15.36 50.14,-10.98 65.5,9.74 7.55,10.19 16.01,19.48 25.21,27.82 34.36,31.1 79.2,48.74 126.63,48.74 47.56,0 92.51,-17.73 126.91,-48.99 9.1,-8.27 17.47,-17.48 24.94,-27.57 15.36,-20.72 44.78,-25.1 65.5,-9.74 20.72,15.36 25.1,44.78 9.74,65.5z"/></svg>