<svg xmlns="http://www.w3.org/2000/svg" width="585.826" height="550.83" fill-rule="evenodd" clip-rule="evenodd" image-rendering="optimizeQuality" shape-rendering="geometricPrecision" text-rendering="geometricPrecision" viewBox="0 0 5438.35 5113.48"><path fill="#03a9f4" d="M1636.84 620.08l1476.75 0c-14.56,-213.97 90.55,-427.79 288.81,-542.26 277.49,-160.21 632.31,-65.13 792.51,212.35 18.5,32.05 33.56,65.14 45.36,98.83 398.86,-149.85 859.05,6.12 1079.1,387.26 220.05,381.14 125.03,857.66 -204.17,1128.16 23.28,27.07 44.41,56.65 62.91,88.7 160.2,277.48 65.13,632.31 -212.35,792.51 -42.01,24.25 -85.79,42.62 -130.4,55.42l0 977.53c0,712.99 -581.89,1294.88 -1294.88,1294.88l-1903.63 0c-712.99,0 -1294.88,-581.89 -1294.88,-1294.88l0 -1903.63c0,-712.99 581.89,-1294.88 1294.88,-1294.88z"/><rect width="3664.21" height="3664.21" x="756.55" y="1034.68" fill="#ff6" rx="880.29" ry="880.29"/><path fill="#4fc3f7" d="M4420.76 3056.65l0 761.95c0,484.16 -396.13,880.29 -880.29,880.29l-1903.63 0c-484.16,0 -880.29,-396.13 -880.29,-880.29l0 -761.95 3664.21 0z"/><path fill="#03a9f4" d="M2369.83 2465.62c-132.04 180.34-356.69 271.91-576.22 271.91-219.52 0-444.18-91.57-576.22-271.91-48.9-66.79-34.31-161.15 32.48-210.05 66.79-48.9 161.15-34.31 210.05 32.48 26.57 36.3 61.04 65.63 99.94 88.35 70.27 41.06 154.98 60.55 233.76 60.55 79.35 0 164.74-19.79 235.3-61.46 38.26-22.6 72.17-51.63 98.39-87.44 48.9-66.79 143.26-81.38 210.05-32.48 66.79 48.9 81.38 143.26 32.48 210.05zM3959.92 2465.62c-132.04 180.34-356.69 271.91-576.22 271.91-219.52 0-444.18-91.57-576.22-271.91-48.9-66.79-34.31-161.15 32.48-210.05 66.79-48.9 161.15-34.31 210.05 32.48 26.57 36.3 61.05 65.63 99.94 88.35 70.26 41.06 154.98 60.55 233.75 60.55 79.35 0 164.74-19.79 235.31-61.46 38.25-22.6 72.17-51.63 98.39-87.44 48.9-66.79 143.26-81.38 210.05-32.48 66.79 48.9 81.38 143.26 32.48 210.05zM1205.38 3061.34c-38.59 217.11-127.94 578.04-282.63 732.75-208.94 208.94-559.75 262.89-780.6 42.04-220.85-220.85-166.9-571.66 42.04-780.6 154.7-154.69 515.64-244.05 732.75-282.63 82.55-14.68 160.14 9.73 219.43 69.02 59.29 59.29 83.69 136.87 69.02 219.43z"/><path fill="#ff6" d="M921.62 3056.65c0,0 -74.47,419.01 -190.3,534.84 -115.83,115.83 -286.85,132.59 -381.99,37.45 -95.14,-95.14 -78.38,-266.17 37.45,-381.99 115.83,-115.82 534.84,-190.3 534.84,-190.3z"/><g><path fill="#03a9f4" d="M3971.94 3061.34c38.59,217.11 127.94,578.04 282.64,732.75 208.94,208.94 559.75,262.89 780.6,42.04 220.85,-220.85 166.9,-571.66 -42.04,-780.6 -154.7,-154.69 -515.64,-244.05 -732.74,-282.63 -82.55,-14.68 -160.14,9.73 -219.43,69.02 -59.29,59.29 -83.69,136.87 -69.02,219.43z"/><path fill="#ff6" d="M4255.7 3056.65c0,0 74.47,419.01 190.3,534.84 115.83,115.83 286.85,132.59 381.99,37.45 95.14,-95.14 78.38,-266.17 -37.45,-381.99 -115.83,-115.82 -534.84,-190.3 -534.84,-190.3z"/></g><path fill="#03a9f4" d="M3575.77 3815.81c-137.12,-184.25 -357.02,-357.3 -566.07,-447.1 -540,-231.94 -1038.77,1.14 -1394.62,429.8 -113.09,136.23 -128.5,319.44 -39.75,472.64 88.75,153.2 255.35,230.98 429.79,200.64 388.2,-67.52 778.28,-68.15 1166.45,-0.09 170.69,29.93 333.63,-43.32 424.55,-190.85 90.92,-147.53 83.1,-326.01 -20.36,-465.03zm-1641.7 247.52c436.37,-75.9 872.73,-76.51 1309.1,0 0,0 -618.84,-831.48 -1309.1,0z"/></svg>