<svg xmlns="http://www.w3.org/2000/svg" width="548.988" height="550.83" fill-rule="evenodd" clip-rule="evenodd" image-rendering="optimizeQuality" shape-rendering="geometricPrecision" text-rendering="geometricPrecision" viewBox="0 0 1453.05 1457.93"><path fill="#03a9f4" d="M369.19 176.79l421.04 0c-4.15,-61.01 25.82,-121.97 82.34,-154.61 79.11,-45.68 180.28,-18.57 225.96,60.54 5.27,9.14 9.57,18.57 12.93,28.18 113.72,-42.72 244.93,1.75 307.67,110.41 62.74,108.67 35.65,244.53 -58.21,321.66 6.64,7.72 12.66,16.15 17.94,25.29 45.68,79.11 18.57,180.28 -60.55,225.96 -11.98,6.91 -24.46,12.15 -37.18,15.8l0 278.71c0,203.28 -165.91,369.19 -369.19,369.19l-542.75 0c-203.28,0 -369.19,-165.91 -369.19,-369.19l0 -542.75c0,-203.28 165.91,-369.19 369.19,-369.19z"/><rect width="1044.72" height="1044.72" x="118.21" y="295" fill="#ff6" rx="250.98" ry="250.98"/><path fill="#4fc3f7" d="M1162.93 871.49l0 217.24c0,138.04 -112.94,250.98 -250.98,250.98l-542.75 0c-138.04,0 -250.98,-112.94 -250.98,-250.98l0 -217.24 1044.72 0z"/><path fill="#03a9f4" d="M488.17 643.33c1.03.86 2.02 1.78 2.98 2.74 1.92 1.92 3.65 3.98 5.18 6.14 5.8 8.2 8.64 17.76 8.64 27.29.01 9.53-2.84 19.1-8.64 27.29-1.53 2.16-3.25 4.22-5.18 6.14-.96.96-1.96 1.87-2.98 2.74l-117.84 101.31c-19.75 16.98-49.7 14.72-66.68-5.03-16.98-19.75-14.72-49.7 5.03-66.68l76.51-65.78-76.51-65.78c-19.75-16.98-22-46.93-5.03-66.68 16.98-19.75 46.93-22 66.68-5.03l117.84 101.31zm304.8 0c-1.03.86-2.02 1.78-2.98 2.74-1.92 1.92-3.65 3.98-5.18 6.14-5.8 8.2-8.64 17.76-8.64 27.29-.01 9.53 2.84 19.1 8.64 27.29 1.53 2.16 3.25 4.22 5.18 6.14.96.96 1.96 1.87 2.98 2.74l117.84 101.31c19.75 16.98 49.7 14.72 66.68-5.03 16.98-19.75 14.72-49.7-5.03-66.68l-76.51-65.78 76.51-65.78c19.75-16.98 22.01-46.93 5.03-66.68-16.98-19.75-46.93-22-66.68-5.03l-117.84 101.31zM942.39 1132.04c-70.94-95.73-182.43-152.11-301.83-152.11-119.39 0-230.88 56.39-301.83 152.11-20.41 27.54-14.59 66.65 12.95 87.06 27.54 20.41 66.65 14.59 87.06-12.95 10.03-13.54 21.28-25.9 33.51-36.97 45.67-41.34 105.27-64.78 168.31-64.78 63.21 0 122.95 23.56 168.67 65.11 12.1 10.99 23.21 23.24 33.15 36.65 20.41 27.54 59.52 33.35 87.06 12.95 27.54-20.41 33.35-59.52 12.95-87.06z"/></svg>