<svg xmlns="http://www.w3.org/2000/svg" width="548.988" height="550.83" fill-rule="evenodd" clip-rule="evenodd" image-rendering="optimizeQuality" shape-rendering="geometricPrecision" text-rendering="geometricPrecision" viewBox="0 0 853.13 855.99"><path fill="#03a9f4" d="M216.76 103.8l247.21 0c-2.44,-35.82 15.16,-71.61 48.35,-90.77 46.45,-26.82 105.85,-10.9 132.66,35.55 3.1,5.36 5.62,10.9 7.59,16.54 66.77,-25.08 143.8,1.02 180.64,64.83 36.84,63.8 20.93,143.57 -34.18,188.85 3.9,4.53 7.43,9.48 10.53,14.85 26.82,46.45 10.9,105.85 -35.55,132.67 -7.03,4.06 -14.36,7.13 -21.83,9.28l0 163.64c0,119.35 -97.41,216.76 -216.76,216.76l-318.66 0c-119.35,0 -216.76,-97.41 -216.76,-216.76l0 -318.66c0,-119.35 97.41,-216.76 216.76,-216.76z"/><rect width="613.38" height="613.38" x="69.4" y="173.2" fill="#ff6" rx="147.36" ry="147.36"/><path fill="#4fc3f7" d="M682.78 511.68l0 127.55c0,81.05 -66.31,147.36 -147.36,147.36l-318.66 0c-81.05,0 -147.36,-66.31 -147.36,-147.36l0 -127.55 613.38 0z"/><path fill="#03a9f4" d="M286.61 377.72c0.6,0.51 1.19,1.04 1.75,1.61 1.13,1.13 2.14,2.34 3.04,3.61 3.41,4.81 5.07,10.43 5.07,16.02 0,5.59 -1.66,11.21 -5.07,16.02 -0.9,1.27 -1.91,2.48 -3.04,3.61 -0.56,0.57 -1.15,1.1 -1.75,1.61l-69.18 59.48c-11.59,9.97 -29.18,8.64 -39.15,-2.95 -9.97,-11.59 -8.64,-29.18 2.95,-39.15l44.92 -38.62 -44.92 -38.62c-11.59,-9.97 -12.92,-27.55 -2.95,-39.15 9.97,-11.59 27.55,-12.92 39.15,-2.95l69.18 59.48zm178.96 0c-0.6,0.51 -1.19,1.04 -1.75,1.61 -1.13,1.13 -2.14,2.34 -3.04,3.61 -3.41,4.81 -5.07,10.43 -5.07,16.02 -0,5.59 1.66,11.21 5.07,16.02 0.9,1.27 1.91,2.48 3.04,3.61 0.56,0.57 1.15,1.1 1.75,1.61l69.18 59.48c11.59,9.97 29.18,8.64 39.15,-2.95 9.97,-11.59 8.64,-29.18 -2.95,-39.15l-44.92 -38.62 44.92 -38.62c11.59,-9.97 12.92,-27.55 2.95,-39.15 -9.97,-11.59 -27.55,-12.92 -39.15,-2.95l-69.18 59.48z"/><rect width="278.72" height="69.4" x="236.73" y="585.15" fill="#03a9f4" rx="46.58" ry="34.7"/></svg>