<svg xmlns="http://www.w3.org/2000/svg" width="548.989" height="550.83" fill-rule="evenodd" clip-rule="evenodd" image-rendering="optimizeQuality" shape-rendering="geometricPrecision" text-rendering="geometricPrecision" viewBox="0 0 1204.38 1208.41"><path fill="#03a9f4" d="M306.01 146.54l348.99 0c-3.44,-50.57 21.4,-101.09 68.25,-128.15 65.57,-37.86 149.43,-15.39 187.29,50.18 4.37,7.57 7.93,15.39 10.72,23.36 94.26,-35.41 203.01,1.45 255.01,91.52 52,90.07 29.55,202.68 -48.25,266.61 5.5,6.4 10.49,13.39 14.87,20.96 37.86,65.57 15.39,149.43 -50.18,187.29 -9.93,5.73 -20.27,10.07 -30.82,13.1l0 231.01c0,168.49 -137.51,306.01 -306.01,306.01l-449.87 0c-168.49,0 -306.01,-137.51 -306.01,-306.01l0 -449.86c0,-168.49 137.51,-306.01 306.01,-306.01z"/><rect width="865.92" height="865.92" x="97.98" y="244.51" fill="#ff6" rx="208.03" ry="208.03"/><path fill="#4fc3f7" d="M963.9 722.35l0 180.06c0,114.42 -93.61,208.03 -208.03,208.03l-449.86 0c-114.42,0 -208.03,-93.61 -208.03,-208.03l0 -180.06 865.92 0z"/><path fill="#03a9f4" d="M344.39 332.6c91.95 0 166.56 74.61 166.56 166.56 0 91.95-74.61 166.56-166.56 166.56-91.95 0-166.56-74.61-166.56-166.56 0-91.95 74.61-166.56 166.56-166.56zm0 117.57c27.06 0 48.99 21.93 48.99 48.99 0 27.06-21.93 48.99-48.99 48.99-27.06 0-48.99-21.93-48.99-48.99 0-27.06 21.93-48.99 48.99-48.99zm373.1 0c27.06 0 48.99 21.93 48.99 48.99 0 27.06-21.93 48.99-48.99 48.99-27.06 0-48.99-21.93-48.99-48.99 0-27.06 21.93-48.99 48.99-48.99zm0-117.57c91.95 0 166.56 74.61 166.56 166.56 0 91.95-74.61 166.56-166.56 166.56-91.95 0-166.56-74.61-166.56-166.56 0-91.95 74.61-166.56 166.56-166.56zm-373.1 58.79c59.5 0 107.77 48.27 107.77 107.77 0 59.5-48.27 107.77-107.77 107.77-59.5 0-107.77-48.27-107.77-107.77 0-59.5 48.27-107.77 107.77-107.77zm373.1 0c59.5 0 107.77 48.27 107.77 107.77 0 59.5-48.27 107.77-107.77 107.77-59.5 0-107.77-48.27-107.77-107.77 0-59.5 48.27-107.77 107.77-107.77zM764.21 901.96c-32.4-43.54-84.37-84.44-133.77-105.66-127.61-54.81-245.48.27-329.58 101.57-26.73 32.19-30.37 75.49-9.39 111.69 20.97 36.21 60.35 54.58 101.57 47.41 91.74-15.96 183.92-16.11 275.66-.02 40.34 7.07 78.84-10.24 100.33-45.1 21.49-34.86 19.64-77.04-4.81-109.9zm-387.96 58.49c103.12-17.94 206.24-18.08 309.37 0 0 0-146.25-196.49-309.37 0z"/></svg>