<svg xmlns="http://www.w3.org/2000/svg" width="548.988" height="550.83" fill-rule="evenodd" clip-rule="evenodd" image-rendering="optimizeQuality" shape-rendering="geometricPrecision" text-rendering="geometricPrecision" viewBox="0 0 6826.62 6849.51"><path fill="#03a9f4" d="M1734.49 830.6l1978.12 0c-19.5,-286.62 121.29,-573.02 386.86,-726.35 371.69,-214.6 846.97,-87.24 1061.57,284.45 24.78,42.93 44.95,87.25 60.76,132.38 534.27,-200.72 1150.7,8.2 1445.46,518.73 294.76,510.53 167.48,1148.84 -273.49,1511.18 31.18,36.26 59.48,75.88 84.26,118.81 214.6,371.69 87.25,846.97 -284.45,1061.57 -56.27,32.49 -114.92,57.08 -174.67,74.24l0 1309.41c0,955.06 -779.45,1734.5 -1734.5,1734.5l-2549.92 0c-955.05,0 -1734.49,-779.44 -1734.49,-1734.5l0 -2549.91c0,-955.06 779.44,-1734.5 1734.49,-1734.5z"/><rect width="4908.22" height="4908.22" x="555.35" y="1385.95" fill="#ff6" rx="1179.15" ry="1179.15"/><path fill="#4fc3f7" d="M5463.56 4094.39l0 1020.63c0,648.54 -530.62,1179.15 -1179.15,1179.15l-2549.91 0c-648.54,0 -1179.15,-530.62 -1179.15,-1179.15l0 -1020.63 4908.21 0z"/><path fill="#03a9f4" d="M4331.74 5278.46c-183.67,246.8 -478.23,478.6 -758.26,598.88 -723.33,310.69 -1391.43,-1.52 -1868.1,-575.72 -151.48,-182.48 -172.12,-427.89 -53.24,-633.11 118.89,-205.22 342.05,-309.39 575.7,-268.75 519.99,90.44 1042.51,91.29 1562.47,0.13 228.64,-40.09 446.91,58.03 568.69,255.65 121.78,197.62 111.32,436.7 -27.27,622.92zm-2199.05 -331.56c584.51,101.67 1169.02,102.48 1753.54,0 0,0 -828.95,1113.77 -1753.54,0z"/><path fill="#03a9f4" fill-rule="nonzero" d="M4331.82 2710.32c55.92,-54.87 123.35,-82.3 221.37,-82.3 173.35,0 314.05,126.17 314.05,281.63 0,255 -257.48,510.01 -539.29,765.01 -50.62,45.8 -126.97,45.8 -177.59,0 -281.81,-255 -539.29,-510.01 -539.29,-765.01 0,-155.46 140.69,-281.63 314.04,-281.63 98.01,0 165.44,27.43 221.37,82.3 51.4,50.42 133.96,50.42 185.36,0zm-2459.37 0c55.93,-54.87 123.35,-82.3 221.37,-82.3 173.35,0 314.05,126.17 314.05,281.63 0,255 -257.47,510.01 -539.29,765.01 -50.62,45.8 -126.98,45.8 -177.6,0 -281.81,-255 -539.29,-510.01 -539.29,-765.01 0,-155.46 140.69,-281.63 314.04,-281.63 98.02,0 165.44,27.43 221.37,82.3 51.4,50.42 133.95,50.42 185.35,0z"/></svg>