<svg xmlns="http://www.w3.org/2000/svg" width="548.989" height="550.83" fill-rule="evenodd" clip-rule="evenodd" image-rendering="optimizeQuality" shape-rendering="geometricPrecision" text-rendering="geometricPrecision" viewBox="0 0 728.67 731.12"><path fill="#03a9f4" d="M185.14 88.66l211.14 0c-2.08,-30.59 12.95,-61.16 41.29,-77.53 39.67,-22.91 90.41,-9.31 113.31,30.36 2.65,4.58 4.8,9.31 6.49,14.13 57.03,-21.42 122.83,0.88 154.29,55.37 31.46,54.49 17.88,122.63 -29.19,161.3 3.33,3.87 6.35,8.1 8.99,12.68 22.91,39.67 9.31,90.41 -30.36,113.31 -6.01,3.47 -12.27,6.09 -18.65,7.92l0 139.77c0,101.94 -83.2,185.14 -185.14,185.14l-272.18 0c-101.94,0 -185.14,-83.2 -185.14,-185.14l0 -272.18c0,-101.94 83.2,-185.14 185.14,-185.14z"/><rect width="523.9" height="523.9" x="59.28" y="147.94" fill="#ff6" rx="125.86" ry="125.86"/><path fill="#4fc3f7" d="M583.18 437.03l0 108.94c0,69.22 -56.64,125.86 -125.86,125.86l-272.18 0c-69.22,0 -125.86,-56.64 -125.86,-125.86l0 -108.94 523.9 0z"/><path fill="#03a9f4" d="M289.94 357.24c-18.88-25.79-51-38.88-82.39-38.88-31.39 0-63.51 13.09-82.39 38.88-6.99 9.55-4.91 23.04 4.64 30.03 9.55 6.99 23.04 4.91 30.03-4.64 3.8-5.19 8.73-9.38 14.29-12.63 10.05-5.87 22.16-8.66 33.42-8.66 11.35 0 23.55 2.83 33.64 8.79 5.47 3.23 10.32 7.38 14.07 12.5 6.99 9.55 20.48 11.64 30.03 4.64 9.55-6.99 11.64-20.48 4.64-30.03zM517.29 357.24c-18.88-25.79-51-38.88-82.39-38.88-31.39 0-63.51 13.09-82.39 38.88-6.99 9.55-4.91 23.04 4.64 30.03 9.55 6.99 23.04 4.91 30.03-4.64 3.8-5.19 8.73-9.38 14.29-12.63 10.05-5.87 22.16-8.66 33.42-8.66 11.35 0 23.55 2.83 33.64 8.79 5.47 3.23 10.32 7.38 14.07 12.5 6.99 9.55 20.48 11.64 30.03 4.64 9.55-6.99 11.64-20.48 4.64-30.03zM472.59 541.18c-35.58 48-91.49 76.28-151.36 76.28-59.87 0-115.78-28.28-151.36-76.28-10.23-13.81-7.32-33.42 6.49-43.66 13.81-10.23 33.42-7.32 43.66 6.49 5.03 6.79 10.67 12.99 16.81 18.54 22.9 20.73 52.79 32.49 84.4 32.49 31.7 0 61.66-11.82 84.59-32.65 6.07-5.51 11.64-11.65 16.62-18.38 10.23-13.81 29.85-16.73 43.66-6.49 13.81 10.23 16.73 29.85 6.49 43.66z"/></svg>