<svg xmlns="http://www.w3.org/2000/svg" width="548.989" height="550.83" fill-rule="evenodd" clip-rule="evenodd" image-rendering="optimizeQuality" shape-rendering="geometricPrecision" text-rendering="geometricPrecision" viewBox="0 0 927.83 930.94"><path fill="#03a9f4" d="M235.74 112.89l268.85 0c-2.65,-38.96 16.48,-77.88 52.58,-98.72 50.52,-29.17 115.11,-11.86 144.28,38.66 3.37,5.83 6.11,11.86 8.26,17.99 72.62,-27.28 156.4,1.11 196.46,70.5 40.06,69.39 22.76,156.14 -37.17,205.39 4.24,4.93 8.08,10.31 11.45,16.15 29.17,50.52 11.86,115.11 -38.66,144.28 -7.65,4.42 -15.62,7.76 -23.74,10.09l0 177.97c0,129.8 -105.94,235.74 -235.74,235.74l-346.57 0c-129.8,0 -235.74,-105.94 -235.74,-235.74l0 -346.57c0,-129.8 105.94,-235.74 235.74,-235.74z"/><rect width="667.09" height="667.09" x="75.48" y="188.37" fill="#ff6" rx="160.26" ry="160.26"/><path fill="#4fc3f7" d="M742.57 556.48l0 138.72c0,88.14 -72.12,160.26 -160.26,160.26l-346.57 0c-88.14,0 -160.26,-72.12 -160.26,-160.26l0 -138.72 667.09 0z"/><path fill="#03a9f4" d="M369.19 448.88c-24.04 32.83-64.94 49.5-104.9 49.5-39.97 0-80.87-16.67-104.9-49.5-8.9-12.16-6.25-29.34 5.91-38.24 12.16-8.9 29.34-6.25 38.24 5.91 4.84 6.61 11.11 11.95 18.19 16.09 12.79 7.47 28.22 11.02 42.56 11.02 14.45 0 29.99-3.6 42.84-11.19 6.97-4.11 13.14-9.4 17.91-15.92 8.9-12.16 26.08-14.82 38.24-5.91 12.16 8.9 14.81 26.08 5.91 38.24zM658.67 448.88c-24.04 32.83-64.94 49.5-104.9 49.5-39.97 0-80.87-16.67-104.9-49.5-8.9-12.16-6.25-29.34 5.91-38.24 12.16-8.9 29.34-6.25 38.24 5.91 4.84 6.61 11.11 11.95 18.19 16.09 12.79 7.47 28.22 11.02 42.56 11.02 14.45 0 29.99-3.6 42.84-11.19 6.96-4.11 13.14-9.4 17.91-15.92 8.9-12.16 26.08-14.82 38.24-5.91 12.16 8.9 14.82 26.08 5.91 38.24zM601.75 722.85c-45.3-61.13-116.49-97.13-192.73-97.13-76.24 0-147.43 36-192.73 97.13-13.03 17.59-9.32 42.56 8.27 55.59 17.59 13.03 42.56 9.32 55.59-8.27 6.41-8.65 13.59-16.54 21.4-23.61 29.16-26.4 67.22-41.37 107.47-41.37 40.36 0 78.51 15.05 107.7 41.57 7.72 7.02 14.82 14.84 21.17 23.4 13.03 17.58 38 21.3 55.59 8.27 17.58-13.03 21.3-38 8.27-55.59z"/></svg>