<svg xmlns="http://www.w3.org/2000/svg" width="548.988" height="550.83" fill-rule="evenodd" clip-rule="evenodd" image-rendering="optimizeQuality" shape-rendering="geometricPrecision" text-rendering="geometricPrecision" viewBox="0 0 21536.07 21608.3"><path fill="#03a9f4" d="M5471.86 2620.31l6240.4 0c-61.53,-904.2 382.63,-1807.73 1220.43,-2291.44 1172.57,-677 2671.95,-275.23 3348.95,897.35 78.18,135.43 141.8,275.26 191.69,417.63 1685.5,-633.21 3630.15,25.87 4560.01,1636.45 929.89,1610.59 528.34,3624.26 -862.77,4767.35 98.36,114.39 187.63,239.39 265.83,374.82 676.98,1172.57 275.23,2671.97 -897.35,3348.96 -177.52,102.48 -362.55,180.08 -551.06,234.2l0 4130.81c0,3012.93 -2458.94,5471.86 -5471.86,5471.86l-8044.27 0c-3012.93,0 -5471.86,-2458.93 -5471.86,-5471.86l0 -8044.27c0,-3012.93 2458.93,-5471.86 5471.86,-5471.86z"/><rect width="15484.05" height="15484.05" x="1751.97" y="4372.28" fill="#ff6" rx="3719.9" ry="3719.9"/><path fill="#4fc3f7" d="M17236.02 12916.65l0 3219.8c0,2045.95 -1673.95,3719.89 -3719.89,3719.89l-8044.27 0c-2045.95,0 -3719.89,-1673.95 -3719.89,-3719.89l0 -3219.8 15484.06 0z"/><path fill="#03a9f4" d="M6158.23 5947.36c1644.15,0 2978.34,1334.21 2978.34,2978.34 0,1644.15 -1334.2,2978.34 -2978.34,2978.34 -1644.13,0 -2978.34,-1334.2 -2978.34,-2978.34 0,-1644.13 1334.21,-2978.34 2978.34,-2978.34zm0 2102.36c483.79,0 875.98,392.19 875.98,875.98 0,483.81 -392.19,875.98 -875.98,875.98 -483.79,0 -875.98,-392.18 -875.98,-875.98 0,-483.79 392.19,-875.98 875.98,-875.98zm6671.54 0c483.79,0 875.98,392.19 875.98,875.98 0,483.81 -392.19,875.98 -875.98,875.98 -483.79,0 -875.98,-392.18 -875.98,-875.98 0,-483.79 392.19,-875.98 875.98,-875.98zm0 -2102.36c1644.15,0 2978.34,1334.21 2978.34,2978.34 0,1644.15 -1334.2,2978.34 -2978.34,2978.34 -1644.13,0 -2978.34,-1334.2 -2978.34,-2978.34 0,-1644.13 1334.21,-2978.34 2978.34,-2978.34zm-6671.54 1051.19c1063.95,0 1927.17,863.22 1927.17,1927.16 0,1063.95 -863.22,1927.17 -1927.17,1927.17 -1063.95,0 -1927.16,-863.22 -1927.16,-1927.17 0,-1063.94 863.2,-1927.16 1927.16,-1927.16zm6671.54 0c1063.95,0 1927.17,863.22 1927.17,1927.16 0,1063.95 -863.22,1927.17 -1927.17,1927.17 -1063.95,0 -1927.17,-863.22 -1927.17,-1927.17 0,-1063.94 863.22,-1927.16 1927.17,-1927.16z"/><circle cx="9493.99" cy="16142.09" r="963.59" fill="#03a9f4"/></svg>